<?xml version="1.0" encoding="utf-8"?>
<!-- Generator: Adobe Illustrator 18.1.1, SVG Export Plug-In . SVG Version: 6.00 Build 0)  -->
<svg version="1.1" id="Layer_1" xmlns="http://www.w3.org/2000/svg" xmlns:xlink="http://www.w3.org/1999/xlink" x="0px" y="0px"
	 viewBox="213.4 -36.4 253.8 713.1" enable-background="new 213.4 -36.4 253.8 713.1" xml:space="preserve">
<rect x="95.6" y="-35" display="none" fill="none" width="556.2" height="845"/>
<g>
	<path id="Facebook__x28_alt_x29_" fill="#A82300" d="M304.2,121.7c-2.9-4-9.1-4.9-13-2.1l-30.1,21.6c-4,2.9-4.9,9.1-2.1,13
		l21.5,30.1c2.9,4,9.1,4.9,13,2.1l15.1-10.8l-12.1-17.1l-5.5,4.1l-5.4-7.5l5.5-4.1l-2-2.9c-3.6-5.1-3.1-12.3,1.6-15.7l6.2-4.4
		l5.4,7.5l-6.2,4.4c-0.6,0.5-0.9,1.8,0,3l2.2,3l7.5-5.4l5.4,7.5l-7.5,5.4l12.2,17.1l7.9-5.8c4-2.9,4.9-9.1,2.1-13L304.2,121.7z"/>
</g>
<g>
	<path id="Twitter__x28_alt_x29_" fill="#A82300" d="M389.1,234.9c3.7-3,5.1-6.4,4.6-9.5c-0.8,1.8-4.6,5.7-7.5,6.4
		c-0.4-0.4-1-1-1.4-1.3c-6.4-5.5-16.2-6.7-22.3-1.6c0.4-0.5,0.8-1.2,1.2-1.7c0.5-0.7,4.2-4.2,2.7-5.3c-1.4-1-5.1,4.8-5.8,5.8
		c1-1.3,2.5-3.6,1.7-5.3c-1.8,1.6-3.1,3.8-3.7,6.3c0.1-1,0.1-2-0.3-2.7c-3,6.8-1.6,15.8,0.4,23.9c-3.3-0.5-5.9-0.8-8.1-0.7
		c-5.9,0.5-12.8,1.7-22.9,4.1c1.6,2.9,5.5,5.4,11.8,4.7c-1.2,0.5-2.7,2-3.8,3.4c2.7,2.7,6.3,4,12.4,1.7c-2.3,1.7-3.1,3.1-3.4,5.1
		c2.5,1.4,6.8,2.1,11.2-1.6c-3.7,5.8,2.3,8,6.1,4.4c-2.3,12.5-14.2,19.7-25.2,17.9c33.2,11.9,64.5-23.1,54.9-49.8
		c4.2-2.9,5.7-5.9,6.1-8.7C395.4,232.5,391.5,234.5,389.1,234.9z"/>
</g>
<g>
	<path id="LinkedIn__x28_alt_x29_" fill="#A82300" d="M416.6,67.2L381,88.5c-1.7,0.9-2.3,3.2-1.3,4.7L401,129
		c0.9,1.7,3.2,2.1,4.9,1.2l35.6-21.3c1.7-0.9,2.3-3.2,1.3-4.7l-21.2-35.7C420.4,66.7,418.3,66.3,416.6,67.2z M411.4,117.7l-6.2,3.8
		l-11.2-18.9l6.2-3.8L411.4,117.7z M395.6,98.2L395.6,98.2c-2.1,1.3-4.4,0.6-5.5-1.2c-1.2-1.8-0.5-4.1,1.7-5.5
		c2.1-1.3,4.3-0.6,5.5,1.2C398.2,94.6,397.7,96.9,395.6,98.2z M434.1,104.1l-6.2,3.8l-5.9-10c-1.5-2.5-3.5-3.8-5.8-2.3
		c-1.8,0.9-2.1,2.8-1.8,4.3c0,0.5,0.3,1.2,0.6,1.7l6.2,10.5l-6.2,3.8c0,0-10-17.2-11.2-18.9l6.2-3.8l1.7,2.6c0-1.8,0.5-4.4,3.8-6.4
		c4.1-2.5,8.9-1.7,12.3,4.1L434.1,104.1L434.1,104.1z M411.5,95.7L411.5,95.7L411.5,95.7L411.5,95.7z"/>
</g>
<g>
	<path id="Google" fill="#A82300" d="M356-27.8l-18.8-6.6c-4.9-1.7-11.4-3.2-18.1-0.7c-5.1,1.9-8.6,6-10,10.2
		c-2.5,7.1,0.5,16.3,10.2,19.7c1,0.3,1.9,0.5,2.9,0.8c-0.8,1-1.7,1.7-2.1,3.2c-1,2.8-0.1,5,0.5,7.1c-4.1-1.1-12-3.3-18.9-1.8
		c-6.6,1.4-9.8,5.4-10.8,8.6c-2.3,6.8,1.8,15.3,15.2,19.9c15.7,5.4,27-0.3,30.1-8.9c2.2-6.3-0.4-10.7-3.2-15.4l-2.3-3.7
		c-0.7-1.1-1.7-2.8-1-4.7s2.5-2.8,4.1-3.6c4.9-1.7,9.9-3.5,12.1-10.3c2.3-7-0.7-12.1-2.2-14.6l5.7,1.9L356-27.8z M328.6,25.2
		c-1.9,5.7-8.1,8.2-16.8,5.1C302,27,297.3,20,299.6,13.6c2.2-6.6,8.9-6.7,11.2-6.7c4.3,0,9.3,1.5,10.2,1.8c1,0.3,1.4,0.4,2.1,0.8
		C328.2,17.1,330.3,20.6,328.6,25.2z M331.6-6.7c-1.9,1-4.9,1.3-7.1,0.4c-7.8-2.8-8-14-5.7-20.2c0.8-2.3,2.1-4.7,4.3-6.1
		c2.1-1.3,5-1.7,7.4-0.8c7.5,2.7,8,14.2,5.7,20.7C335.6-11,334.5-8.1,331.6-6.7z"/>
</g>
<g>
	<path id="YouTube" fill="#A82300" d="M424.3,435.8h-3.5v-2.1c0-1,0.7-1.7,1.7-1.7h0.3c1,0,1.7,0.7,1.7,1.7L424.3,435.8z
		 M410.8,431.4c-0.8,0-1.7,0.5-1.7,1.4v10.1c0,0.7,0.7,1.4,1.7,1.4c0.8,0,1.7-0.5,1.7-1.4v-10.1C412.5,432,411.7,431.4,410.8,431.4z
		 M432.8,425.6v19.3c0,4.7-3.9,8.5-8.9,8.5h-36.6c-4.9,0-8.9-3.8-8.9-8.5v-19.3c0-4.7,3.9-8.5,8.9-8.5h36.6
		C428.6,417.3,432.8,421.1,432.8,425.6z M389.5,447.1v-20.3h4.5v-3h-12.1v3h3.8v20.4h3.8L389.5,447.1L389.5,447.1z M403.1,429.7
		h-3.8v10.8c0,1.6,0.1,2.4,0,2.7c-0.3,0.8-1.7,1.7-2.2,0.1c-0.1-0.3,0-1.2,0-2.7v-11h-3.8v10.7c0,1.7,0,2.8,0,3.4c0.1,1,0,2.1,1,2.8
		c1.7,1.3,4.9-0.1,5.8-2v2.2h3.1L403.1,429.7L403.1,429.7z M415.2,442.3v-9c0-3.4-2.5-5.5-6.1-2.7v-6.8h-3.8v23.1h3.1l0.3-1.4
		C412.9,449,415.2,446.6,415.2,442.3z M427.1,441h-2.8c0,0.1,0,0.3,0,0.4v1.6c0,0.8-0.7,1.6-1.6,1.6h-0.5c-0.8,0-1.6-0.7-1.6-1.6
		v-0.1v-1.7v-2.2h6.5v-2.4c0-1.8,0-3.5-0.1-4.7c-0.4-3.2-5.1-3.8-7.3-2.1c-0.7,0.5-1.3,1.3-1.6,2.1c-0.3,1-0.4,2.2-0.4,3.8v5.3
		C417.5,450,428.5,448.7,427.1,441z M412.6,411.8c0.1,0.4,0.5,0.8,0.8,1.2c0.4,0.3,1,0.4,1.6,0.4s1-0.1,1.4-0.4
		c0.4-0.3,0.7-0.7,1.2-1.4v1.6h4.2v-17.9h-3.4v13.9c0,0.7-0.5,1.4-1.4,1.4c-0.7,0-1.4-0.5-1.4-1.4v-13.9H412v12.1
		c0,1.6,0,2.5,0.1,3.1C412.3,410.8,412.5,411.3,412.6,411.8z M399.7,401.7c0-1.7,0.1-3.1,0.4-4.1c0.3-1,0.8-1.7,1.6-2.4
		c0.7-0.5,1.7-0.8,2.8-0.8c1,0,1.8,0.1,2.5,0.5c0.7,0.4,1.3,0.8,1.7,1.4c0.4,0.5,0.7,1.3,0.8,1.8c0.1,0.7,0.3,1.7,0.3,3v4.5
		c0,1.7,0,3-0.1,3.7c-0.1,0.8-0.4,1.6-0.8,2.1c-0.4,0.7-1,1.2-1.7,1.6c-0.7,0.3-1.4,0.4-2.2,0.4c-1,0-1.8-0.1-2.4-0.4
		c-0.7-0.3-1.2-0.7-1.6-1.3c-0.4-0.5-0.7-1.3-0.8-2c-0.1-0.8-0.3-2-0.3-3.5L399.7,401.7L399.7,401.7z M403.1,408.7
		c0,1,0.7,1.8,1.7,1.8s1.7-0.8,1.7-1.8v-9.6c0-1-0.7-1.8-1.7-1.8s-1.7,0.8-1.7,1.8V408.7z M391.4,413.6h3.9v-13.8L400,388h-4.3
		l-2.5,8.7l-2.5-8.7h-4.5l5.1,11.8L391.4,413.6z"/>
</g>
<g>
	<path id="WordPress" fill="#A82300" d="M265.7,342.8c-12.4,13.6-11.4,34.6,2.1,47c13.6,12.4,34.6,11.4,47-2.1
		c12.4-13.6,11.4-34.6-2.1-47C299,328.3,278,329.2,265.7,342.8z M267.4,344.6c3-3.3,6.6-5.7,10.4-7.5l-16.2,39.5
		C257.4,366.1,259.3,353.6,267.4,344.6z M269.5,388c-2.3-2-4.1-4.3-5.6-6.7l24.9-13.6l-10.5,25.5c0,0.1-0.1,0.2-0.1,0.5
		C275,392.3,272.1,390.3,269.5,388z M308.9,381.6c4.3-2,7.1-4.2,9.1-6.6c0.7-0.9,1.4-1.6,2-2.6c-1.2,4.8-3.5,9.5-7.2,13.5
		c-7.6,8.3-18.9,11.5-29.2,9.3L308.9,381.6z M310.3,370.2c-0.5,2.3-1.3,5.2-3.8,8c-1.8,1.9-4.6,3.8-8.3,5.7l-9.1,5.5l14.1-31.9
		c1.4,1.2,2.8,2.1,2.8,2.1c1.4,1,2.8-1,1.5-2c0,0-4-3-6.3-5.2c-2.3-2-5.7-5.7-5.7-5.7c-1.2-1.2-3,0.5-1.9,1.8c0,0,1,1.2,2.1,2.4
		l-5.3,12.9l-18.5,10.4l14.2-32.1c1.4,1.2,2.8,2.1,2.8,2.1c1.4,1,2.8-1,1.5-2c0,0-4-3-6.3-5.2c-0.4-0.4-0.9-0.9-1.4-1.4
		c9.6-2.4,20.4-0.1,28.3,7.1c6,5.5,9.3,12.6,9.9,19.9c-0.1-0.1-0.1-0.2-0.2-0.2c-2.3-2-5.6-1.5-7.5,0.5
		C311.3,364.7,311,367.2,310.3,370.2z"/>
</g>
<g>
	<path id="Yelp" fill="#A82300" d="M271.3,493.7c1.5-4.4,6.9-9,9.6-10.1c2.7-1.1,4.9-0.5,6,1.1l14,21c1.1,1.6,1.2,3.7,0.3,4.7
		c-1,0.9-3.1,1-5,0.1l-22.9-10.8C271.5,498.7,269.5,499.2,271.3,493.7z M293.9,536.2l8.5-11.3c1.2-1.5,1.6-4,0.9-5.4
		c-0.8-1.4-2.9-2.3-4.8-1.8l-14.8,3c-1.9,0.4-2.7,3-1.7,5.6c0,0,5.1,8.3,6.5,9.8C289.9,537.8,292.7,537.8,293.9,536.2z M314.6,525.5
		c-1.1-1.7-2.9-2.5-4-1.9c-1.2,0.6-2.4,2.7-2.6,4.7l-1.6,14.4c-0.2,1.9,2.3,4.5,4.1,4.1l10-2.5c1.9-0.4,3.6-3.9,2.5-5.5L314.6,525.5
		z M332.6,510.7l-11.6,3.6c-1.8,0.5-3.7,1.8-3.9,2.7c-0.3,0.9,1,2.4,2.7,3.4l13.5,7.2c1.7,1,4.8-1.4,4.8-3.4c0,0,0.1-7.9-0.5-10.4
		C336.7,511.3,334.4,510.1,332.6,510.7z M324.6,493.3c-1.4-1.1-7.1-3.4-9.7-3.7c-2.6-0.3-4.3,1.1-4.5,3l-1.4,11.6
		c-0.2,1.9,0.8,4.1,2.3,4.9s3.8,0.1,5.2-1.3l9.5-9.1C327.5,496.9,326,494.4,324.6,493.3z"/>
</g>
<g>
	<path fill="#A82300" d="M377.4,612.6c8.8-2.4,9.8-2.6,13.3-3.4c3.2-0.7,5.2-0.7,6.4-0.5c1.6,0.1,3.1,0.5,4.5,1.4
		c1.4,0.8,2.6,1.8,3.6,3.1c0.8,1,1.8,2.6,2.9,5.8c1.2,3.4,1.5,4.5,3.9,13.3c2.4,8.9,2.6,9.8,3.4,13.3c0.7,3.2,0.7,5.2,0.5,6.4
		c-0.3,3.2-1.9,6-4.5,8c-1,0.8-2.6,1.8-5.8,2.9c-3.4,1.2-4.5,1.5-13.3,3.9c-8.8,2.4-9.8,2.6-13.3,3.4c-3.2,0.7-5.2,0.7-6.4,0.5
		c-1.6-0.1-3.1-0.5-4.5-1.4c-1.4-0.8-2.6-1.8-3.6-3.1c-0.8-1-1.8-2.6-2.9-5.8c-1.2-3.4-1.5-4.5-3.9-13.3c-2.4-8.8-2.6-9.8-3.4-13.3
		c-0.7-3.2-0.7-5.2-0.5-6.4c0.1-1.6,0.5-3.1,1.4-4.5c0.8-1.4,1.8-2.6,3.1-3.6c1-0.8,2.6-1.8,5.8-2.9
		C367.6,615.3,368.6,615,377.4,612.6 M375.8,606.6c-8.9,2.5-10.1,2.9-13.5,3.9c-3.4,1.2-5.7,2.3-7.5,3.8c-1.9,1.5-3.6,3.3-4.8,5.4
		c-1.3,2-1.9,4.5-2.2,6.9c-0.2,2.3-0.1,4.8,0.7,8.4c0.8,3.6,1,4.7,3.6,13.6c2.5,8.9,2.9,10.1,3.9,13.5c1.2,3.4,2.3,5.7,3.8,7.5
		c1.5,1.9,3.3,3.6,5.4,4.8c2,1.3,4.5,1.9,6.9,2.2c2.3,0.2,4.8,0.1,8.4-0.7c3.6-0.8,4.7-1,13.6-3.6c8.9-2.5,10.1-2.9,13.5-3.9
		c3.4-1.2,5.7-2.3,7.5-3.8c3.9-3,6.4-7.4,7-12.3c0.2-2.3,0.1-4.8-0.7-8.4c-0.8-3.6-1-4.7-3.6-13.6c-2.5-8.9-2.9-10.1-3.9-13.5
		c-1.2-3.4-2.3-5.7-3.8-7.5c-1.5-1.9-3.3-3.6-5.4-4.8c-2-1.3-4.5-1.9-6.9-2.2c-2.3-0.2-4.8-0.1-8.4,0.7
		C385.9,603.9,384.8,604.2,375.8,606.6L375.8,606.6L375.8,606.6z"/>
	<path fill="#A82300" d="M380.1,622.6c-9.3,2.6-14.8,12.3-12.3,21.5c2.6,9.3,12.3,14.8,21.5,12.3c9.3-2.6,14.8-12.3,12.3-21.5l0,0
		C399.2,625.5,389.6,620,380.1,622.6z M388,650.5c-6,1.7-12.4-1.8-14-7.9c-1.7-6,1.8-12.4,7.9-14c6-1.7,12.4,1.8,14,7.9
		C397.6,642.6,394,648.8,388,650.5z"/>
	<circle fill="#A82300" cx="397.6" cy="617.1" r="4.1"/>
</g>
</svg>
