<?xml version="1.0" encoding="utf-8"?>
<!-- Generator: Adobe Illustrator 18.1.1, SVG Export Plug-In . SVG Version: 6.00 Build 0)  -->
<svg version="1.1" id="Layer_1" xmlns="http://www.w3.org/2000/svg" xmlns:xlink="http://www.w3.org/1999/xlink" x="0px" y="0px"
	 viewBox="193.1 -36.4 274.1 727.6" enable-background="new 193.1 -36.4 274.1 727.6" xml:space="preserve">
<rect x="95.6" y="-35" display="none" fill="none" width="556.2" height="845"/>
<g>
	<path id="Facebook__x28_alt_x29_" fill="#A82300" d="M253.9,103.6c-3.6-3.3-9.9-2.9-13.2,0.6l-25,27.3c-3.3,3.6-2.9,9.9,0.6,13.2
		l27.3,25c3.6,3.3,9.9,2.9,13.2-0.6l12.5-13.7l-15.4-14.2l-4.6,5.1l-6.9-6.2l4.6-5.1l-2.6-2.5c-4.6-4.3-5.6-11.4-1.7-15.7l5.1-5.6
		l6.9,6.2l-5.1,5.6c-0.5,0.6-0.5,2,0.6,2.9l2.8,2.5l6.2-6.9l6.9,6.2l-6.2,6.9l15.5,14.1l6.6-7.3c3.3-3.6,2.9-9.9-0.6-13.2
		L253.9,103.6z"/>
</g>
<g>
	<path id="Twitter__x28_alt_x29_" fill="#A82300" d="M375.4,230c4.3-3.5,5.9-7.4,5.3-11c-0.9,2.1-5.3,6.6-8.7,7.4
		c-0.5-0.5-1.2-1.2-1.7-1.5c-7.4-6.4-18.7-7.7-25.8-1.8c0.5-0.6,0.9-1.3,1.3-2c0.6-0.8,4.9-4.9,3.2-6.1c-1.7-1.2-5.9,5.6-6.7,6.7
		c1.2-1.5,2.9-4.1,2-6.1c-2.1,1.8-3.6,4.4-4.3,7.3c0.2-1.2,0.2-2.3-0.3-3.2c-3.5,7.9-1.8,18.3,0.5,27.7c-3.8-0.6-6.9-0.9-9.4-0.8
		c-6.9,0.6-14.8,2-26.5,4.7c1.8,3.3,6.4,6.2,13.7,5.5c-1.3,0.6-3.2,2.3-4.4,4c3.2,3.2,7.3,4.6,14.3,2c-2.6,2-3.6,3.6-4,5.9
		c2.9,1.7,7.9,2.5,13-1.8c-4.3,6.7,2.6,9.2,7.1,5.1c-2.6,14.5-16.4,22.8-29.2,20.7c38.5,13.8,74.7-26.8,63.5-57.6
		c4.9-3.3,6.6-6.9,7.1-10C382.7,227.2,378.2,229.5,375.4,230z"/>
</g>
<g>
	<path id="LinkedIn__x28_alt_x29_" fill="#A82300" d="M440.6,95.2L405,116.5c-1.7,0.9-2.3,3.2-1.3,4.7L425,157
		c0.9,1.7,3.2,2.1,4.9,1.2l35.6-21.3c1.7-0.9,2.3-3.2,1.3-4.7l-21.2-35.7C444.4,94.7,442.3,94.3,440.6,95.2z M435.4,145.7l-6.2,3.8
		l-11.2-18.9l6.2-3.8L435.4,145.7z M419.6,126.2L419.6,126.2c-2.1,1.3-4.4,0.6-5.5-1.2c-1.2-1.8-0.5-4.1,1.7-5.5
		c2.1-1.3,4.3-0.6,5.5,1.2C422.2,122.6,421.7,124.9,419.6,126.2z M458.1,132.1l-6.2,3.8l-5.9-10c-1.5-2.5-3.5-3.8-5.8-2.3
		c-1.8,0.9-2.1,2.8-1.8,4.3c0,0.5,0.3,1.2,0.6,1.7l6.2,10.5l-6.2,3.8c0,0-10-17.2-11.2-18.9l6.2-3.8l1.7,2.6c0-1.8,0.5-4.4,3.8-6.4
		c4.1-2.5,8.9-1.7,12.3,4.1L458.1,132.1L458.1,132.1z M435.5,123.7L435.5,123.7L435.5,123.7L435.5,123.7z"/>
</g>
<g>
	<path id="Google" fill="#A82300" d="M368-26.3L345.8-34c-5.8-2-13.5-3.8-21.4-0.8c-6.1,2.3-10.2,7.1-11.9,12
		c-2.9,8.4,0.6,19.3,12,23.2c1.2,0.3,2.3,0.6,3.5,0.9c-0.9,1.2-2,2-2.5,3.8c-1.2,3.3-0.2,5.9,0.6,8.4c-4.9-1.3-14.1-4-22.4-2.1
		c-7.7,1.7-11.5,6.4-12.8,10.2c-2.8,8.1,2.1,18.1,17.9,23.6c18.6,6.4,31.9-0.3,35.6-10.5c2.6-7.4-0.5-12.6-3.8-18.3L338,12
		c-0.8-1.3-2-3.3-1.2-5.6c0.8-2.3,2.9-3.3,4.9-4.3c5.8-2,11.7-4.1,14.3-12.2c2.8-8.2-0.8-14.3-2.6-17.3l6.7,2.3L368-26.3z
		 M335.6,36.4c-2.3,6.7-9.6,9.7-19.9,6.1c-11.5-4-17.2-12.2-14.5-19.8c2.6-7.7,10.5-7.9,13.2-7.9c5.1,0,11,1.8,12,2.1
		c1.2,0.3,1.7,0.5,2.5,0.9C335.2,26.9,337.6,31,335.6,36.4z M339.1-1.3c-2.3,1.2-5.8,1.5-8.4,0.5c-9.2-3.3-9.4-16.6-6.7-23.9
		c0.9-2.8,2.5-5.6,5.1-7.3c2.5-1.5,5.9-2,8.7-0.9c8.9,3.2,9.4,16.8,6.7,24.5C343.9-6.3,342.6-2.9,339.1-1.3z"/>
</g>
<g>
	<path id="YouTube" fill="#A82300" d="M439,489.8h-4.1v-2.5c0-1.2,0.8-2,2-2h0.3c1.2,0,2,0.8,2,2L439,489.8z M423.2,484.7
		c-0.9,0-2,0.6-2,1.7v11.9c0,0.8,0.8,1.7,2,1.7c0.9,0,2-0.6,2-1.7v-11.9C425.2,485.4,424.3,484.7,423.2,484.7z M448.9,477.9v22.5
		c0,5.5-4.6,9.9-10.4,9.9h-42.8c-5.8,0-10.4-4.4-10.4-9.9v-22.5c0-5.5,4.6-9.9,10.4-9.9h42.8C444.1,468.2,448.9,472.6,448.9,477.9z
		 M398.3,503v-23.7h5.3v-3.5h-14.1v3.5h4.4v23.9h4.4L398.3,503L398.3,503z M414.3,482.7h-4.4v12.6c0,1.8,0.2,2.8,0,3.2
		c-0.3,0.9-2,2-2.6,0.2c-0.2-0.3,0-1.3,0-3.2v-12.8h-4.4v12.5c0,2,0,3.3,0,4c0.2,1.2,0,2.5,1.2,3.3c2,1.5,5.8-0.2,6.7-2.3v2.6h3.6
		L414.3,482.7L414.3,482.7z M428.4,497.4v-10.5c0-4-2.9-6.4-7.1-3.2v-7.9h-4.4v27h3.6l0.3-1.7C425.7,505.3,428.4,502.4,428.4,497.4z
		 M442.3,495.9h-3.3c0,0.2,0,0.3,0,0.5v1.8c0,0.9-0.8,1.8-1.8,1.8h-0.6c-0.9,0-1.8-0.8-1.8-1.8V498v-2v-2.6h7.6v-2.8
		c0-2.1,0-4.1-0.2-5.5c-0.5-3.8-5.9-4.4-8.5-2.5c-0.8,0.6-1.5,1.5-1.8,2.5c-0.3,1.2-0.5,2.6-0.5,4.4v6.2
		C431.1,506.4,443.9,505,442.3,495.9z M425.4,461.8c0.2,0.5,0.6,0.9,0.9,1.3c0.5,0.3,1.2,0.5,1.8,0.5s1.2-0.2,1.7-0.5
		c0.5-0.3,0.8-0.8,1.3-1.7v1.8h4.9v-20.9h-4v16.3c0,0.8-0.6,1.7-1.7,1.7c-0.8,0-1.7-0.6-1.7-1.7v-16.3h-4.1v14.1
		c0,1.8,0,2.9,0.2,3.6C425,460.6,425.2,461.2,425.4,461.8z M410.3,450c0-2,0.2-3.6,0.5-4.7c0.3-1.2,0.9-2,1.8-2.8
		c0.8-0.6,2-0.9,3.3-0.9c1.2,0,2.1,0.2,2.9,0.6c0.8,0.5,1.5,0.9,2,1.7c0.5,0.6,0.8,1.5,0.9,2.1c0.2,0.8,0.3,2,0.3,3.5v5.3
		c0,2,0,3.5-0.2,4.3c-0.2,0.9-0.5,1.8-0.9,2.5c-0.5,0.8-1.2,1.3-2,1.8c-0.8,0.3-1.7,0.5-2.6,0.5c-1.2,0-2.1-0.2-2.8-0.5
		c-0.8-0.3-1.3-0.8-1.8-1.5c-0.5-0.6-0.8-1.5-0.9-2.3c-0.2-0.9-0.3-2.3-0.3-4.1L410.3,450L410.3,450z M414.3,458.2
		c0,1.2,0.8,2.1,2,2.1c1.2,0,2-0.9,2-2.1V447c0-1.2-0.8-2.1-2-2.1c-1.2,0-2,0.9-2,2.1V458.2z M400.6,464h4.6v-16.1l5.5-13.8h-5.1
		l-2.9,10.2l-2.9-10.2h-5.2l5.9,13.8L400.6,464z"/>
</g>
<g>
	<path id="WordPress" fill="#A82300" d="M238,357.8c-13.9,15.2-12.7,38.7,2.4,52.5c15.2,13.9,38.7,12.7,52.5-2.4
		c13.9-15.2,12.7-38.7-2.4-52.5C275.3,341.6,251.8,342.6,238,357.8z M240,359.7c3.4-3.7,7.4-6.4,11.6-8.4l-18.1,44.1
		C228.8,383.8,230.9,369.8,240,359.7z M242.3,408.2c-2.5-2.2-4.6-4.8-6.3-7.5l27.8-15.2L252,414c0,0.1-0.1,0.3-0.1,0.5
		C248.5,413,245.2,410.8,242.3,408.2z M286.3,401.1c4.8-2.2,8-4.7,10.2-7.4c0.8-1,1.6-1.8,2.2-2.9c-1.3,5.4-3.9,10.6-8.1,15
		c-8.5,9.3-21.1,12.9-32.6,10.3L286.3,401.1z M287.9,388.3c-0.5,2.5-1.4,5.8-4.2,8.9c-2,2.1-5.1,4.2-9.3,6.4l-10.2,6.1l15.7-35.6
		c1.6,1.3,3.1,2.4,3.1,2.4c1.6,1.2,3.1-1.2,1.7-2.2c0,0-4.4-3.4-7.1-5.8c-2.5-2.2-6.4-6.4-6.4-6.4c-1.3-1.3-3.4,0.5-2.1,2
		c0,0,1.2,1.3,2.4,2.7l-5.9,14.4l-20.7,11.6l15.9-35.9c1.6,1.3,3.1,2.4,3.1,2.4c1.6,1.2,3.1-1.2,1.7-2.2c0,0-4.4-3.4-7.1-5.8
		c-0.4-0.4-1-1-1.6-1.6c10.8-2.7,22.8-0.1,31.6,8c6.7,6.1,10.3,14,11,22.3c-0.1-0.1-0.1-0.3-0.3-0.3c-2.5-2.2-6.3-1.7-8.4,0.5
		C289,382.3,288.6,385.1,287.9,388.3z"/>
</g>
<g>
	<path id="Yelp" fill="#A82300" d="M193.9,500.7c1.8-5.3,8.2-10.7,11.5-12s5.8-0.6,7.1,1.3l16.6,25c1.3,1.9,1.4,4.4,0.4,5.6
		c-1.2,1.1-3.7,1.2-5.9,0.1l-27.2-12.9C194.2,506.7,191.8,507.2,193.9,500.7z M220.7,551.2l10.2-13.4c1.4-1.8,1.9-4.8,1.1-6.4
		c-0.9-1.7-3.5-2.7-5.7-2.2l-17.6,3.6c-2.3,0.5-3.2,3.6-2,6.7c0,0,6.1,9.9,7.7,11.7C216,553.1,219.3,553.1,220.7,551.2z
		 M245.4,538.5c-1.3-2-3.5-3-4.8-2.3c-1.4,0.7-2.8,3.2-3.1,5.6l-1.9,17.1c-0.2,2.3,2.7,5.4,4.9,4.9l11.9-3c2.3-0.5,4.3-4.6,3-6.6
		L245.4,538.5z M266.8,520.9l-13.8,4.3c-2.2,0.6-4.4,2.2-4.6,3.2c-0.4,1.1,1.2,2.8,3.2,4l16.1,8.6c2,1.2,5.7-1.7,5.7-4
		c0,0,0.1-9.4-0.6-12.4C271.7,521.7,269,520.2,266.8,520.9z M257.2,500.2c-1.7-1.3-8.5-4-11.6-4.4s-5.1,1.3-5.4,3.6l-1.7,13.8
		c-0.2,2.3,0.9,4.9,2.7,5.8c1.8,0.9,4.5,0.1,6.2-1.5l11.3-10.8C260.7,504.5,258.9,501.5,257.2,500.2z"/>
</g>
<g>
	<path fill="#A82300" d="M340.6,610.7c11-3,12.4-3.3,16.7-4.3c4-0.8,6.5-0.8,8.1-0.7c2,0.1,3.9,0.7,5.6,1.7s3.3,2.3,4.5,3.9
		c1,1.3,2.3,3.3,3.6,7.3c1.4,4.3,1.9,5.6,4.9,16.7s3.3,12.4,4.3,16.7c0.8,4,0.8,6.5,0.7,8.1c-0.4,4-2.4,7.6-5.6,10.1
		c-1.3,1-3.3,2.3-7.3,3.6c-4.3,1.4-5.6,1.9-16.7,4.9c-11,3-12.4,3.3-16.7,4.3c-4,0.8-6.5,0.8-8.1,0.7c-2-0.1-3.9-0.7-5.6-1.7
		s-3.3-2.3-4.5-3.9c-1-1.3-2.3-3.3-3.6-7.3c-1.4-4.3-1.9-5.6-4.9-16.7c-3-11-3.3-12.4-4.3-16.7c-0.8-4-0.8-6.5-0.7-8.1
		c0.1-2,0.7-3.9,1.7-5.6c1-1.7,2.3-3.3,3.9-4.5c1.3-1,3.3-2.3,7.3-3.6C328.2,614.2,329.5,613.7,340.6,610.7 M338.6,603.2
		c-11.2,3.2-12.6,3.6-17,4.9c-4.3,1.4-7.2,2.9-9.5,4.8c-2.4,1.9-4.5,4.1-6,6.8c-1.6,2.6-2.4,5.6-2.8,8.6c-0.3,2.9-0.1,6,0.8,10.5
		c1,4.5,1.3,5.9,4.5,17.1c3.2,11.2,3.6,12.6,4.9,17c1.4,4.3,2.9,7.2,4.8,9.5c1.9,2.4,4.1,4.5,6.8,6c2.6,1.6,5.6,2.4,8.6,2.8
		c2.9,0.3,6,0.1,10.5-0.8c4.5-1,5.9-1.3,17.1-4.5c11.2-3.2,12.6-3.6,17-4.9c4.3-1.4,7.2-2.9,9.5-4.8c4.9-3.7,8.1-9.3,8.8-15.4
		c0.3-2.9,0.1-6-0.8-10.5c-1-4.5-1.3-5.9-4.5-17.1c-3.2-11.2-3.6-12.6-4.9-17c-1.4-4.3-2.9-7.2-4.8-9.5c-1.9-2.4-4.1-4.5-6.8-6
		c-2.6-1.6-5.6-2.4-8.6-2.8c-2.9-0.3-6-0.1-10.5,0.8C351.2,599.8,349.8,600.2,338.6,603.2L338.6,603.2L338.6,603.2z"/>
	<path fill="#A82300" d="M344,623.4c-11.7,3.3-18.6,15.4-15.4,27c3.3,11.7,15.4,18.6,27,15.4c11.7-3.3,18.6-15.4,15.4-27l0,0
		C367.9,626.9,355.8,620,344,623.4z M353.8,658.3c-7.6,2.1-15.5-2.3-17.5-9.9c-2.1-7.6,2.3-15.5,9.9-17.5c7.6-2.1,15.5,2.3,17.5,9.9
		C365.9,648.3,361.4,656.1,353.8,658.3z"/>
	<circle fill="#A82300" cx="365.9" cy="616.5" r="5.2"/>
</g>
</svg>
