<?xml version="1.0" encoding="utf-8"?>
<!-- Generator: Adobe Illustrator 18.1.1, SVG Export Plug-In . SVG Version: 6.00 Build 0)  -->
<svg version="1.1" id="Layer_1" xmlns="http://www.w3.org/2000/svg" xmlns:xlink="http://www.w3.org/1999/xlink" x="0px" y="0px"
	 viewBox="0 -68 550 1002" enable-background="new 0 -68 550 1002" xml:space="preserve">
<rect x="8.8" y="-26.2" display="none" fill="none" width="703.7" height="1069.1"/>
<g>
	<path id="Facebook__x28_alt_x29_" fill="#A82300" d="M162,147.3c-4.6-4.2-12.5-3.7-16.7,0.8l-31.6,34.6c-4.2,4.6-3.7,12.5,0.8,16.7
		L149,231c4.6,4.2,12.5,3.7,16.7-0.8l15.8-17.3L162,194.9l-5.8,6.5l-8.7-7.9l5.8-6.5l-3.3-3.1c-5.8-5.4-7.1-14.4-2.1-19.8l6.5-7.1
		l8.7,7.9l-6.5,7.1c-0.6,0.8-0.6,2.5,0.8,3.7l3.5,3.1l7.9-8.7l8.7,7.9l-7.9,8.7l19.6,17.9l8.3-9.2c4.2-4.6,3.7-12.5-0.8-16.7
		L162,147.3z"/>
</g>
<g>
	<path id="Twitter__x28_alt_x29_" fill="#A82300" d="M362.8,309c5.4-4.4,7.5-9.4,6.7-13.9c-1.2,2.7-6.7,8.3-11,9.4
		c-0.6-0.6-1.5-1.5-2.1-1.9c-9.4-8.1-23.7-9.8-32.7-2.3c0.6-0.8,1.2-1.7,1.7-2.5c0.8-1,6.2-6.2,4-7.7c-2.1-1.5-7.5,7.1-8.5,8.5
		c1.5-1.9,3.7-5.2,2.5-7.7c-2.7,2.3-4.6,5.6-5.4,9.2c0.2-1.5,0.2-2.9-0.4-4c-4.4,10-2.3,23.1,0.6,35c-4.8-0.8-8.7-1.2-11.9-1
		c-8.7,0.8-18.7,2.5-33.5,6c2.3,4.2,8.1,7.9,17.3,6.9c-1.7,0.8-4,2.9-5.6,5c4,4,9.2,5.8,18.1,2.5c-3.3,2.5-4.6,4.6-5,7.5
		c3.7,2.1,10,3.1,16.4-2.3c-5.4,8.5,3.3,11.7,9,6.5c-3.3,18.3-20.8,28.9-36.9,26.2c48.7,17.5,94.5-33.9,80.4-72.9
		c6.2-4.2,8.3-8.7,9-12.7C372,305.5,366.3,308.4,362.8,309z"/>
</g>
<g>
	<path id="LinkedIn__x28_alt_x29_" fill="#A82300" d="M445.3,138.5l-45,26.9c-2.1,1.2-2.9,4-1.7,6l26.9,45.2c1.2,2.1,4,2.7,6.2,1.5
		l45-26.9c2.1-1.2,2.9-4,1.7-6L451.6,140C450.1,137.9,447.4,137.3,445.3,138.5z M438.7,202.4l-7.9,4.8l-14.2-23.9l7.9-4.8
		L438.7,202.4z M418.7,177.7L418.7,177.7c-2.7,1.7-5.6,0.8-6.9-1.5c-1.5-2.3-0.6-5.2,2.1-6.9s5.4-0.8,6.9,1.5
		C422,173.1,421.4,176,418.7,177.7z M467.4,185.2l-7.9,4.8l-7.5-12.7c-1.9-3.1-4.4-4.8-7.3-2.9c-2.3,1.2-2.7,3.5-2.3,5.4
		c0,0.6,0.4,1.5,0.8,2.1l7.9,13.3l-7.9,4.8c0,0-12.7-21.7-14.2-23.9l7.9-4.8l2.1,3.3c0-2.3,0.6-5.6,4.8-8.1
		c5.2-3.1,11.2-2.1,15.6,5.2L467.4,185.2L467.4,185.2z M438.9,174.5L438.9,174.5L438.9,174.5L438.9,174.5z"/>
</g>
<g>
	<path id="Google" fill="#A82300" d="M353.5-15.2L325.4-25c-7.3-2.5-17.1-4.8-27.1-1c-7.7,2.9-12.9,9-15,15.2
		c-3.7,10.6,0.8,24.4,15.2,29.4c1.5,0.4,2.9,0.8,4.4,1.2c-1.2,1.5-2.5,2.5-3.1,4.8c-1.5,4.2-0.2,7.5,0.8,10.6
		c-6.2-1.7-17.9-5-28.3-2.7c-9.8,2.1-14.6,8.1-16.2,12.9c-3.5,10.2,2.7,22.9,22.7,29.8c23.5,8.1,40.4-0.4,45-13.3
		c3.3-9.4-0.6-16-4.8-23.1l-3.5-5.6c-1-1.7-2.5-4.2-1.5-7.1c1-2.9,3.7-4.2,6.2-5.4c7.3-2.5,14.8-5.2,18.1-15.4
		c3.5-10.4-1-18.1-3.3-21.9l8.5,2.9L353.5-15.2z M312.5,64.1c-2.9,8.5-12.1,12.3-25.2,7.7c-14.6-5-21.7-15.4-18.3-25
		c3.3-9.8,13.3-10,16.7-10c6.5,0,13.9,2.3,15.2,2.7c1.5,0.4,2.1,0.6,3.1,1.2C311.9,52,315,57.2,312.5,64.1z M316.9,16.4
		c-2.9,1.5-7.3,1.9-10.6,0.6c-11.7-4.2-11.9-21-8.5-30.2c1.2-3.5,3.1-7.1,6.5-9.2c3.1-1.9,7.5-2.5,11-1.2c11.2,4,11.9,21.2,8.5,31
		C322.9,10,321.3,14.3,316.9,16.4z"/>
</g>
<g>
	<path id="YouTube" fill="#A82300" d="M443.3,637.7h-5.2v-3.1c0-1.5,1-2.5,2.5-2.5h0.4c1.5,0,2.5,1,2.5,2.5L443.3,637.7z
		 M423.3,631.2c-1.2,0-2.5,0.8-2.5,2.1v15c0,1,1,2.1,2.5,2.1c1.2,0,2.5-0.8,2.5-2.1v-15C425.8,632.1,424.7,631.2,423.3,631.2z
		 M455.8,622.7v28.5c0,6.9-5.8,12.5-13.1,12.5h-54.1c-7.3,0-13.1-5.6-13.1-12.5v-28.5c0-6.9,5.8-12.5,13.1-12.5h54.1
		C449.7,610.4,455.8,616,455.8,622.7z M391.8,654.4v-30h6.7V620h-17.9v4.4h5.6v30.2h5.6L391.8,654.4L391.8,654.4z M412,628.7h-5.6
		v16c0,2.3,0.2,3.5,0,4c-0.4,1.2-2.5,2.5-3.3,0.2c-0.2-0.4,0-1.7,0-4v-16.2h-5.6v15.8c0,2.5,0,4.2,0,5c0.2,1.5,0,3.1,1.5,4.2
		c2.5,1.9,7.3-0.2,8.5-2.9v3.3h4.6V628.7L412,628.7z M429.9,647.3v-13.3c0-5-3.7-8.1-9-4v-10h-5.6v34.1h4.6l0.4-2.1
		C426.4,657.3,429.9,653.7,429.9,647.3z M447.4,645.4h-4.2c0,0.2,0,0.4,0,0.6v2.3c0,1.2-1,2.3-2.3,2.3h-0.8c-1.2,0-2.3-1-2.3-2.3
		v-0.2v-2.5v-3.3h9.6v-3.5c0-2.7,0-5.2-0.2-6.9c-0.6-4.8-7.5-5.6-10.8-3.1c-1,0.8-1.9,1.9-2.3,3.1c-0.4,1.5-0.6,3.3-0.6,5.6v7.9
		C433.3,658.7,449.5,656.9,447.4,645.4z M426,602.3c0.2,0.6,0.8,1.2,1.2,1.7c0.6,0.4,1.5,0.6,2.3,0.6s1.5-0.2,2.1-0.6
		c0.6-0.4,1-1,1.7-2.1v2.3h6.2v-26.4h-5v20.6c0,1-0.8,2.1-2.1,2.1c-1,0-2.1-0.8-2.1-2.1v-20.6h-5.2v17.9c0,2.3,0,3.7,0.2,4.6
		C425.6,600.8,425.8,601.5,426,602.3z M407,587.3c0-2.5,0.2-4.6,0.6-6c0.4-1.5,1.2-2.5,2.3-3.5c1-0.8,2.5-1.2,4.2-1.2
		c1.5,0,2.7,0.2,3.7,0.8c1,0.6,1.9,1.2,2.5,2.1c0.6,0.8,1,1.9,1.2,2.7c0.2,1,0.4,2.5,0.4,4.4v6.7c0,2.5,0,4.4-0.2,5.4
		c-0.2,1.2-0.6,2.3-1.2,3.1c-0.6,1-1.5,1.7-2.5,2.3c-1,0.4-2.1,0.6-3.3,0.6c-1.5,0-2.7-0.2-3.5-0.6c-1-0.4-1.7-1-2.3-1.9
		c-0.6-0.8-1-1.9-1.2-2.9c-0.2-1.2-0.4-2.9-0.4-5.2L407,587.3L407,587.3z M412,597.7c0,1.5,1,2.7,2.5,2.7c1.5,0,2.5-1.2,2.5-2.7
		v-14.2c0-1.5-1-2.7-2.5-2.7c-1.5,0-2.5,1.2-2.5,2.7V597.7z M394.7,605h5.8v-20.4l6.9-17.5H401l-3.7,12.9l-3.7-12.9H387l7.5,17.5
		L394.7,605z"/>
</g>
<g>
	<path id="WordPress" fill="#A82300" d="M185.9,492.1c-20.4,22.3-18.7,56.8,3.5,77.2c22.3,20.4,56.8,18.7,77.2-3.5
		c20.4-22.3,18.7-56.8-3.5-77.2C240.7,468.3,206.1,469.8,185.9,492.1z M188.8,495c5-5.4,10.8-9.4,17.1-12.3l-26.6,64.8
		C172.4,530.4,175.5,509.8,188.8,495z M192.2,566.2c-3.7-3.3-6.7-7.1-9.2-11l40.8-22.3l-17.3,41.8c0,0.2-0.2,0.4-0.2,0.8
		C201.3,573.3,196.5,570.1,192.2,566.2z M256.9,555.8c7.1-3.3,11.7-6.9,15-10.8c1.2-1.5,2.3-2.7,3.3-4.2
		c-1.9,7.9-5.8,15.6-11.9,22.1c-12.5,13.7-31,18.9-47.9,15.2L256.9,555.8z M259.2,537c-0.8,3.7-2.1,8.5-6.2,13.1
		c-2.9,3.1-7.5,6.2-13.7,9.4l-15,9l23.1-52.3c2.3,1.9,4.6,3.5,4.6,3.5c2.3,1.7,4.6-1.7,2.5-3.3c0,0-6.5-5-10.4-8.5
		c-3.7-3.3-9.4-9.4-9.4-9.4c-1.9-1.9-5,0.8-3.1,2.9c0,0,1.7,1.9,3.5,4l-8.7,21.2l-30.4,17.1l23.3-52.7c2.3,1.9,4.6,3.5,4.6,3.5
		c2.3,1.7,4.6-1.7,2.5-3.3c0,0-6.5-5-10.4-8.5c-0.6-0.6-1.5-1.5-2.3-2.3c15.8-4,33.5-0.2,46.4,11.7c9.8,9,15.2,20.6,16.2,32.7
		c-0.2-0.2-0.2-0.4-0.4-0.4c-3.7-3.3-9.2-2.5-12.3,0.8C260.9,528.1,260.3,532.2,259.2,537z"/>
</g>
<g>
	<path id="Yelp" fill="#A82300" d="M51,673.7c2.9-8.5,13.3-17.3,18.5-19.4s9.4-1,11.5,2.1l26.9,40.4c2.1,3.1,2.3,7.1,0.6,9
		c-1.9,1.7-6,1.9-9.6,0.2L55,685.2C51.4,683.3,47.5,684.1,51,673.7z M94.3,755.3l16.4-21.7c2.3-2.9,3.1-7.7,1.7-10.4
		c-1.5-2.7-5.6-4.4-9.2-3.5l-28.5,5.8c-3.7,0.8-5.2,5.8-3.3,10.8c0,0,9.8,16,12.5,18.9C86.6,758.3,92,758.3,94.3,755.3z
		 M134.1,734.7c-2.1-3.3-5.6-4.8-7.7-3.7c-2.3,1.2-4.6,5.2-5,9l-3.1,27.7c-0.4,3.7,4.4,8.7,7.9,7.9l19.2-4.8
		c3.7-0.8,6.9-7.5,4.8-10.6L134.1,734.7z M168.7,706.2l-22.3,6.9c-3.5,1-7.1,3.5-7.5,5.2c-0.6,1.7,1.9,4.6,5.2,6.5l26,13.9
		c3.3,1.9,9.2-2.7,9.2-6.5c0,0,0.2-15.2-1-20C176.6,707.5,172.2,705.2,168.7,706.2z M153.2,672.9c-2.7-2.1-13.7-6.5-18.7-7.1
		c-5-0.6-8.3,2.1-8.7,5.8l-2.7,22.3c-0.4,3.7,1.5,7.9,4.4,9.4c2.9,1.5,7.3,0.2,10-2.5l18.3-17.5C158.9,679.8,156,675,153.2,672.9z"
		/>
</g>
<g>
	<path fill="#A82300" d="M310.4,812.6c16-4.4,17.9-4.8,24.2-6.2c5.8-1.2,9.4-1.2,11.7-1c2.9,0.2,5.6,1,8.1,2.5
		c2.5,1.5,4.8,3.3,6.5,5.6c1.5,1.9,3.3,4.8,5.2,10.6c2.1,6.2,2.7,8.1,7.1,24.2s4.8,17.9,6.2,24.2c1.2,5.8,1.2,9.4,1,11.7
		c-0.6,5.8-3.5,11-8.1,14.6c-1.9,1.5-4.8,3.3-10.6,5.2c-6.2,2.1-8.1,2.7-24.2,7.1c-16,4.4-17.9,4.8-24.2,6.2
		c-5.8,1.2-9.4,1.2-11.7,1c-2.9-0.2-5.6-1-8.1-2.5s-4.8-3.3-6.5-5.6c-1.5-1.9-3.3-4.8-5.2-10.6c-2.1-6.2-2.7-8.1-7.1-24.2
		c-4.4-16-4.8-17.9-6.2-24.2c-1.2-5.8-1.2-9.4-1-11.7c0.2-2.9,1-5.6,2.5-8.1s3.3-4.8,5.6-6.5c1.9-1.5,4.8-3.3,10.6-5.2
		C292.5,817.6,294.4,816.9,310.4,812.6 M307.5,801.7c-16.2,4.6-18.3,5.2-24.6,7.1c-6.2,2.1-10.4,4.2-13.7,6.9
		c-3.5,2.7-6.5,6-8.7,9.8c-2.3,3.7-3.5,8.1-4,12.5c-0.4,4.2-0.2,8.7,1.2,15.2c1.5,6.5,1.9,8.5,6.5,24.8c4.6,16.2,5.2,18.3,7.1,24.6
		c2.1,6.2,4.2,10.4,6.9,13.7c2.7,3.5,6,6.5,9.8,8.7c3.7,2.3,8.1,3.5,12.5,4c4.2,0.4,8.7,0.2,15.2-1.2c6.5-1.5,8.5-1.9,24.8-6.5
		c16.2-4.6,18.3-5.2,24.6-7.1c6.2-2.1,10.4-4.2,13.7-6.9c7.1-5.4,11.7-13.5,12.7-22.3c0.4-4.2,0.2-8.7-1.2-15.2
		c-1.5-6.5-1.9-8.5-6.5-24.8c-4.6-16.2-5.2-18.3-7.1-24.6c-2.1-6.2-4.2-10.4-6.9-13.7c-2.7-3.5-6-6.5-9.8-8.7
		c-3.7-2.3-8.1-3.5-12.5-4c-4.2-0.4-8.7-0.2-15.2,1.2C325.8,796.8,323.8,797.4,307.5,801.7L307.5,801.7L307.5,801.7z"/>
	<path fill="#A82300" d="M315.4,830.9c-16.9,4.8-26.9,22.3-22.3,39.1c4.8,16.9,22.3,26.9,39.1,22.3c16.9-4.8,26.9-22.3,22.3-39.1
		l0,0C350,836.1,332.5,826.1,315.4,830.9z M329.6,881.5c-11,3.1-22.5-3.3-25.4-14.4c-3.1-11,3.3-22.5,14.4-25.4
		c11-3.1,22.5,3.3,25.4,14.4C347.1,867.1,340.6,878.4,329.6,881.5z"/>
	<circle fill="#A82300" cx="347.1" cy="820.9" r="7.5"/>
</g>
</svg>
